<svg xmlns="http://www.w3.org/2000/svg" viewBox="0 0 512 512"><path fill="#6DA544" d="M0 0h512v512H0z"/><path fill="#FFDA44" d="M256 100.174L467.478 256 256 411.826 44.522 256z"/><circle fill="#F0F0F0" cx="256" cy="256" r="89.043"/><g fill="#0052B4"><path d="M211.478 250.435c-15.484 0-30.427 2.355-44.493 6.725.623 48.64 40.227 87.884 89.015 87.884 30.168 0 56.812-15.017 72.919-37.968-27.557-34.497-69.958-56.641-117.441-56.641zM343.393 273.06a89.45 89.45 0 0 0 1.651-17.06c0-49.178-39.866-89.043-89.043-89.043-41.543 0-76.554 28.444-86.557 67.097 12.993-2.497 26.392-3.812 40.042-3.812 51.81-.001 98.111 16.833 133.907 42.818z"/></g></svg>