<svg xmlns="http://www.w3.org/2000/svg" viewBox="0 0 512 512"><path fill="#f0f0f0" d="M0 0h512v512H0z"/><g fill="#D80027"><path d="M0 0h512v39.385H0zM0 78.769h512v39.385H0zM0 157.538h512v39.385H0zM0 236.308h512v39.385H0zM0 315.077h512v39.385H0zM0 393.846h512v39.385H0zM0 472.615h512V512H0z"/></g><path fill="#2E52B2" d="M0 0h275.69v275.69H0z"/><g fill="#f0f0f0"><path d="M38.628 30.307l3.695 11.374h11.96l-9.675 7.03 3.695 11.375-9.675-7.031-9.675 7.03 3.695-11.374-9.675-7.03h11.96zM98.772 30.307l3.695 11.374h11.96l-9.675 7.03 3.695 11.375-9.675-7.031-9.675 7.03 3.695-11.374-9.675-7.03h11.96zM158.916 30.307l3.695 11.374h11.96l-9.675 7.03 3.695 11.375-9.675-7.031-9.675 7.03 3.695-11.374-9.675-7.03h11.96zM219.059 30.307l3.695 11.374h11.96l-9.675 7.03 3.695 11.375-9.675-7.031-9.675 7.03 3.695-11.374-9.675-7.03h11.96zM68.7 70.972l3.695 11.374h11.96l-9.675 7.03 3.695 11.375-9.675-7.031-9.675 7.03 3.695-11.374-9.675-7.03h11.96zM128.844 70.972l3.695 11.374h11.96l-9.675 7.03 3.695 11.375-9.675-7.031-9.675 7.03 3.695-11.374-9.675-7.03h11.96zM188.988 70.972l3.695 11.374h11.96l-9.675 7.03 3.695 11.375-9.675-7.031-9.675 7.03 3.695-11.374-9.675-7.03h11.96zM38.628 111.637l3.695 11.374h11.96l-9.675 7.03 3.695 11.375-9.675-7.031-9.675 7.03 3.695-11.374-9.675-7.03h11.96zM98.772 111.637l3.695 11.374h11.96l-9.675 7.03 3.695 11.375-9.675-7.031-9.675 7.03 3.695-11.374-9.675-7.03h11.96zM158.916 111.637l3.695 11.374h11.96l-9.675 7.03 3.695 11.375-9.675-7.031-9.675 7.03 3.695-11.374-9.675-7.03h11.96zM219.059 111.637l3.695 11.374h11.96l-9.675 7.03 3.695 11.375-9.675-7.031-9.675 7.03 3.695-11.374-9.675-7.03h11.96zM68.7 152.302l3.695 11.374h11.96l-9.675 7.03 3.695 11.375-9.675-7.031-9.675 7.03 3.695-11.374-9.675-7.03h11.96zM128.844 152.302l3.695 11.374h11.96l-9.675 7.03 3.695 11.375-9.675-7.031-9.675 7.03 3.695-11.374-9.675-7.03h11.96zM188.988 152.302l3.695 11.374h11.96l-9.675 7.03 3.695 11.375-9.675-7.031-9.675 7.03 3.695-11.374-9.675-7.03h11.96zM38.628 192.967l3.695 11.374h11.96l-9.675 7.03 3.695 11.375-9.675-7.031-9.675 7.03 3.695-11.374-9.675-7.03h11.96zM98.772 192.967l3.695 11.374h11.96l-9.675 7.03 3.695 11.375-9.675-7.031-9.675 7.03 3.695-11.374-9.675-7.03h11.96zM158.916 192.967l3.695 11.374h11.96l-9.675 7.03 3.695 11.375-9.675-7.031-9.675 7.03 3.695-11.374-9.675-7.03h11.96zM219.059 192.967l3.695 11.374h11.96l-9.675 7.03 3.695 11.375-9.675-7.031-9.675 7.03 3.695-11.374-9.675-7.03h11.96zM68.7 233.632l3.695 11.374h11.96l-9.675 7.03 3.695 11.375-9.675-7.031-9.675 7.03 3.695-11.374-9.675-7.03h11.96zM128.844 233.632l3.695 11.374h11.96l-9.675 7.03 3.695 11.375-9.675-7.031-9.675 7.03 3.695-11.374-9.675-7.03h11.96zM188.988 233.632l3.695 11.374h11.96l-9.675 7.03 3.695 11.375-9.675-7.031-9.675 7.03 3.695-11.374-9.675-7.03h11.96z"/></g></svg>